<svg width="18" height="18" viewBox="0 0 18 18" fill="none" xmlns="http://www.w3.org/2000/svg">
<path d="M12.502 12.5527C12.0195 12.5527 11.627 12.1621 11.627 11.6777C11.627 11.1953 12.0176 10.8027 12.502 10.8027H13.2832C17.0059 10.8027 16.7363 5.44336 13.2871 5.5664C12.1094 -0.273441 3.06251 1.83398 4.83986 7.6914C3.02345 6.24804 0.843761 9.04296 2.69923 10.4219C4.01173 11.3965 6.38087 10.0625 6.38087 11.6777C6.38087 12.7773 5.13282 12.5527 3.93361 12.5527C1.01759 12.5527 -0.779285 9.4414 0.890637 7.0625C1.68751 5.92578 2.93946 5.64453 2.93946 5.64453C3.51954 1.17382 8.62306 -1.18555 12.4024 1.34375C14.0254 2.42968 14.6387 4.01757 14.6387 4.01757C15.5918 4.30664 16.4102 4.9082 16.9668 5.70507C18.8418 8.38671 17.3867 12.5527 12.502 12.5527ZM9.04298 5.55859C9.04689 5.55859 9.04884 5.56054 9.05275 5.56054C9.05665 5.56054 9.05861 5.55859 9.06251 5.55859H9.04298ZM12.502 13.7832C12.502 13.4414 11.6074 13.4453 11.2656 13.7852L10.625 14.4277C10.3496 14.7031 9.87892 14.5098 9.87892 14.1191V6.43359C9.87892 5.95507 9.52931 5.5664 9.05275 5.56054C8.57423 5.5664 8.13087 5.95312 8.13087 6.43359V14.1191C8.13087 14.5078 7.66017 14.7031 7.38478 14.4277L6.74415 13.6055C6.40236 13.2637 5.85939 13.4238 5.51759 13.4238H5.51368C5.17189 14.2988 5.16993 14.5 5.51173 14.8418L7.76954 17.1934C8.45314 17.8769 9.55861 17.9219 10.2422 17.2383L12.502 15C12.8438 14.6582 12.502 14.1172 12.502 13.7754V13.7832Z" fill="#0038FF"/>
</svg>
