<svg width="24" height="24" viewBox="0 0 24 24" fill="none" xmlns="http://www.w3.org/2000/svg">
<path d="M20.5515 18.342C20.628 18.342 20.6985 18.267 20.6985 18.186C20.6985 18.105 20.628 18.0315 20.5515 18.0315C20.475 18.0315 20.4045 18.1065 20.4045 18.186C20.4045 18.267 20.475 18.342 20.5515 18.342ZM17.2575 21.936C17.3115 21.993 17.388 22.026 17.463 22.026C17.5018 22.0259 17.5402 22.0178 17.5758 22.0024C17.6114 21.9869 17.6434 21.9643 17.67 21.936C17.7243 21.8766 17.7544 21.799 17.7544 21.7185C17.7544 21.638 17.7243 21.5604 17.67 21.501C17.6434 21.4728 17.6113 21.4502 17.5757 21.4348C17.5401 21.4193 17.5018 21.4112 17.463 21.411C17.4244 21.4113 17.3863 21.4195 17.351 21.4349C17.3157 21.4504 17.2839 21.4729 17.2575 21.501C17.2029 21.5603 17.1726 21.6379 17.1726 21.7185C17.1726 21.7991 17.2029 21.8767 17.2575 21.936ZM12.945 23.865C13.026 23.9505 13.14 24 13.254 24C13.3119 23.9995 13.3692 23.9872 13.4222 23.964C13.4753 23.9408 13.5232 23.9071 13.563 23.865C13.6454 23.7758 13.6912 23.6587 13.6912 23.5373C13.6912 23.4158 13.6454 23.2987 13.563 23.2095C13.5233 23.1671 13.4755 23.1331 13.4224 23.1097C13.3693 23.0862 13.312 23.0737 13.254 23.073C13.196 23.0735 13.1388 23.0858 13.0857 23.109C13.0326 23.1322 12.9847 23.1659 12.945 23.208C12.8621 23.2973 12.8161 23.4147 12.8161 23.5365C12.8161 23.6583 12.8621 23.7757 12.945 23.865ZM8.29648 23.73C8.40448 23.8425 8.55598 23.91 8.70898 23.91C8.78607 23.9092 8.86221 23.8928 8.93283 23.8619C9.00345 23.831 9.06711 23.7861 9.11998 23.73C9.22972 23.6111 9.29066 23.4553 9.29066 23.2935C9.29066 23.1317 9.22972 22.9759 9.11998 22.857C9.06711 22.8009 9.00345 22.756 8.93283 22.7251C8.86221 22.6942 8.78607 22.6778 8.70898 22.677C8.63163 22.6776 8.55521 22.6939 8.48432 22.7248C8.41342 22.7557 8.34953 22.8007 8.29648 22.857C8.18749 22.9759 8.12703 23.1314 8.12703 23.2927C8.12703 23.4541 8.18749 23.6096 8.29648 23.7285V23.73ZM4.17898 21.5775C4.31398 21.72 4.50298 21.8025 4.69348 21.8025C4.79022 21.8017 4.88581 21.7814 4.97448 21.7428C5.06316 21.7041 5.1431 21.6479 5.20948 21.5775C5.34663 21.4287 5.42277 21.2338 5.42277 21.0315C5.42277 20.8292 5.34663 20.6343 5.20948 20.4855C5.1431 20.4151 5.06316 20.3589 4.97448 20.3202C4.88581 20.2816 4.79022 20.2613 4.69348 20.2605C4.59699 20.2615 4.50169 20.2819 4.41329 20.3205C4.32488 20.3592 4.24519 20.4153 4.17898 20.4855C4.04183 20.6343 3.96569 20.8292 3.96569 21.0315C3.96569 21.2338 4.04183 21.4287 4.17898 21.5775ZM1.33948 17.8425C1.50148 18.015 1.72948 18.1155 1.95748 18.1155C2.07372 18.1144 2.18854 18.0898 2.29501 18.0431C2.40148 17.9965 2.4974 17.9287 2.57698 17.844C2.74153 17.6654 2.83288 17.4314 2.83288 17.1885C2.83288 16.9456 2.74153 16.7116 2.57698 16.533C2.4974 16.4483 2.40148 16.3805 2.29501 16.3339C2.18854 16.2872 2.07372 16.2626 1.95748 16.2615C1.84161 16.2627 1.72718 16.2872 1.621 16.3336C1.51482 16.38 1.41907 16.4473 1.33948 16.5315C1.1745 16.7102 1.08289 16.9445 1.08289 17.1877C1.08289 17.431 1.1745 17.6653 1.33948 17.844V17.8425ZM0.29848 13.2345C0.391352 13.3329 0.503125 13.4115 0.627102 13.4656C0.751079 13.5197 0.884708 13.5483 1.01998 13.5495C1.15525 13.5483 1.28888 13.5197 1.41286 13.4656C1.53683 13.4115 1.64861 13.3329 1.74148 13.2345C1.93333 13.0262 2.03984 12.7534 2.03984 12.4703C2.03984 12.1871 1.93333 11.9143 1.74148 11.706C1.64878 11.6078 1.53725 11.5293 1.41355 11.4752C1.28984 11.4211 1.1565 11.3924 1.02148 11.391C0.885954 11.392 0.75204 11.4205 0.627791 11.4746C0.503542 11.5288 0.391526 11.6075 0.29848 11.706C0.106626 11.9143 0.00012207 12.1871 0.00012207 12.4703C0.00012207 12.7534 0.106626 13.0262 0.29848 13.2345ZM1.23148 8.655C1.33763 8.76751 1.46543 8.8574 1.60721 8.91927C1.74898 8.98114 1.9018 9.0137 2.05648 9.015C2.21116 9.0137 2.36398 8.98114 2.50575 8.91927C2.64753 8.8574 2.77533 8.76751 2.88148 8.655C3.10106 8.41701 3.22299 8.10507 3.22299 7.78125C3.22299 7.45743 3.10106 7.14549 2.88148 6.9075C2.77546 6.79471 2.64771 6.70454 2.50593 6.64242C2.36415 6.58029 2.21127 6.5475 2.05648 6.546C1.90169 6.5475 1.74881 6.58029 1.60703 6.64242C1.46525 6.70454 1.3375 6.79471 1.23148 6.9075C1.0119 7.14549 0.889972 7.45743 0.889972 7.78125C0.889972 8.10507 1.0119 8.41701 1.23148 8.655ZM3.94498 4.98C4.18798 5.238 4.52998 5.388 4.87498 5.388C5.21698 5.388 5.55898 5.238 5.80198 4.98C6.04854 4.71221 6.18541 4.36151 6.18541 3.9975C6.18541 3.63349 6.04854 3.28279 5.80198 3.015C5.68275 2.88786 5.53903 2.78616 5.37945 2.71605C5.21988 2.64593 5.04777 2.60883 4.87348 2.607C4.52998 2.607 4.18798 2.757 3.94498 3.015C3.69842 3.28279 3.56155 3.63349 3.56155 3.9975C3.56155 4.36151 3.69842 4.71221 3.94498 4.98ZM7.90648 2.925C8.17648 3.21 8.55598 3.3765 8.93698 3.3765C9.31798 3.3765 9.69748 3.2115 9.96748 2.925C10.2421 2.62765 10.3946 2.23776 10.3946 1.833C10.3946 1.42824 10.2421 1.03835 9.96748 0.741C9.83497 0.600228 9.67538 0.487673 9.4983 0.410088C9.32123 0.332503 9.1303 0.291487 8.93698 0.2895C8.74366 0.291487 8.55273 0.332503 8.37565 0.410088C8.19858 0.487673 8.03899 0.600228 7.90648 0.741C7.63219 1.03851 7.4799 1.42834 7.4799 1.833C7.4799 2.23766 7.63219 2.62749 7.90648 2.925ZM12.351 2.8995C12.648 3.2145 13.0665 3.3975 13.4865 3.3975C13.9065 3.3975 14.3235 3.2145 14.6205 2.8995C14.9221 2.57236 15.0895 2.1437 15.0895 1.69875C15.0895 1.2538 14.9221 0.825142 14.6205 0.498C14.4746 0.34269 14.2988 0.218506 14.1036 0.132922C13.9085 0.0473375 13.6981 0.00212308 13.485 0C13.065 0 12.6465 0.183 12.3495 0.498C12.0479 0.825142 11.8804 1.2538 11.8804 1.69875C11.8804 2.1437 12.0479 2.57236 12.3495 2.8995H12.351ZM16.425 4.929C16.749 5.271 17.205 5.4705 17.661 5.4705C18.12 5.4705 18.576 5.271 18.8985 4.929C19.2274 4.57222 19.41 4.10475 19.41 3.6195C19.41 3.13425 19.2274 2.66678 18.8985 2.31C18.7395 2.14072 18.5479 2.00535 18.3352 1.91203C18.1226 1.81872 17.8932 1.76938 17.661 1.767C17.2035 1.767 16.749 1.9665 16.425 2.31C16.0961 2.66678 15.9135 3.13425 15.9135 3.6195C15.9135 4.10475 16.0961 4.57222 16.425 4.929ZM19.332 8.6445C19.683 9.0165 20.1765 9.2325 20.673 9.2325C21.168 9.2325 21.663 9.0165 22.0125 8.6445C22.3688 8.25784 22.5666 7.75129 22.5666 7.2255C22.5666 6.69971 22.3688 6.19316 22.0125 5.8065C21.8403 5.62332 21.6329 5.47681 21.4028 5.37576C21.1726 5.27472 20.9243 5.22123 20.673 5.2185C20.1765 5.2185 19.683 5.4345 19.332 5.8065C18.9757 6.19316 18.7779 6.69971 18.7779 7.2255C18.7779 7.75129 18.9757 8.25784 19.332 8.6445ZM20.514 13.4265C20.892 13.827 21.423 14.0595 21.9585 14.0595C22.4925 14.0595 23.0235 13.827 23.4015 13.4265C23.7852 13.01 23.9982 12.4643 23.9982 11.898C23.9982 11.3317 23.7852 10.786 23.4015 10.3695C23.2161 10.172 22.9927 10.0139 22.7448 9.90489C22.4968 9.79585 22.2293 9.73807 21.9585 9.735C21.423 9.735 20.8935 9.969 20.514 10.3695C20.1299 10.7859 19.9167 11.3316 19.9167 11.898C19.9167 12.4644 20.1299 13.0101 20.514 13.4265Z" fill="#1296DB"/>
</svg>
